<?xml version="1.0" encoding="UTF-8"?><svg id="Calque_2" xmlns="http://www.w3.org/2000/svg" viewBox="0 0 35.67 37"><defs><style>.cls-1{fill:#fff;stroke:#000;stroke-miterlimit:10;}.cls-2{fill-rule:evenodd;}</style></defs><g id="Calque_2-2"><g><rect class="cls-1" x=".5" y=".5" width="34.67" height="36"/><path class="cls-2" d="M15.74,29.11c0,.92,.75,1.67,1.67,1.67,.92,0,1.67-.75,1.67-1.67v-.66h2.78c.47,0,.86-.38,.86-.86v-4.14c0-.47-.38-.86-.86-.86h-2.77v-4.95c.8-.26,1.56-.7,2.19-1.34,2.13-2.13,2.13-5.59,0-7.72s-5.59-2.13-7.72,0c-2.13,2.13-2.13,5.59,0,7.72,.64,.64,1.39,1.08,2.19,1.34v11.45Zm.18-15.17c-.82-.82-.82-2.15,0-2.97,.82-.82,2.15-.82,2.97,0s.82,2.15,0,2.97c-.82,.82-2.15,.82-2.97,0Z"/></g></g></svg>