<?xml version="1.0" encoding="UTF-8"?><svg id="Calque_2" xmlns="http://www.w3.org/2000/svg" viewBox="0 0 34.67 36"><defs><style>.cls-1{fill:#fff;fill-rule:evenodd;}</style></defs><g id="Calque_2-2"><g><rect width="34.67" height="36"/><path class="cls-1" d="M15.24,28.61c0,.92,.75,1.67,1.67,1.67,.92,0,1.67-.75,1.67-1.67v-.66h2.78c.47,0,.86-.38,.86-.86v-4.14c0-.47-.38-.86-.86-.86h-2.77v-4.95c.8-.26,1.56-.7,2.19-1.34,2.13-2.13,2.13-5.59,0-7.72s-5.59-2.13-7.72,0-2.13,5.59,0,7.72c.64,.64,1.39,1.08,2.19,1.34v11.45Zm.18-15.17c-.82-.82-.82-2.15,0-2.97s2.15-.82,2.97,0,.82,2.15,0,2.97-2.15,.82-2.97,0Z"/></g></g></svg>